<?xml version="1.0" encoding="utf-8"?>
<!-- Svg Vector Icons : http://www.onlinewebfonts.com/icon -->
<!DOCTYPE svg PUBLIC "-//W3C//DTD SVG 1.1//EN" "http://www.w3.org/Graphics/SVG/1.1/DTD/svg11.dtd">
<svg version="1.1" xmlns="http://www.w3.org/2000/svg" xmlns:xlink="http://www.w3.org/1999/xlink" x="0px" y="0px" viewBox="0 0 1000 1000" enable-background="new 0 0 1000 1000" xml:space="preserve">
<metadata> Svg Vector Icons : http://www.onlinewebfonts.com/icon </metadata>
<g><g><g><circle cx="255.7" cy="111.4" r="101.4"/><path d="M931.4,551.8c-4.1-5.3-10.4-8.3-17.1-8.3H654.2c-12,0-21.7,9.7-21.7,21.7c0,12,9.7,21.7,21.7,21.7h232.4l-14.2,57.3H638.9c-12,0-21.7,9.7-21.7,21.7c0,12,9.7,21.7,21.7,21.7h222.7l-14.2,57.2H582l-46.9-263.5c-1.3-7.1-5.9-12.8-12.1-15.7c8.3-5.6,14.5-14.3,16.5-24.9c4.2-21.3-9.8-42-31.1-46.2c-39-7.6-70.6-43.4-104.1-81.3c-24.7-28-50.3-56.9-81.1-75.8c-1.7-1-3.5-1.8-5.3-2.6c-11.3-7.5-24-13.1-36.9-16.3l-25.3,25.4l-24.5-25.7c-0.1,0-0.2,0-0.2,0c-13,3.1-25.8,8.7-37.2,16.2c-0.3,0.1-0.6,0.2-0.9,0.3C50.2,297.8,64,538.6,64.6,548.8c1.3,20.8,18.7,36.8,39.3,36.8c0.8,0,1.7,0,2.5-0.1c21.7-1.4,38.2-20.1,36.8-41.8c-1.5-23.8-0.6-69.9,8.7-115.6v102.5c0,10.6,2.1,20.5,5.7,29.6c-0.3,2-0.5,4.1-0.5,6.2l0,377c0,25.7,20.8,46.5,46.5,46.5c25.7,0,46.5-20.8,46.5-46.5l0-323.5c1.9,0.1,3.7,0.2,5.5,0.2c0.4,0,0.7,0,1.1,0l0,323.3c0,25.7,20.8,46.5,46.5,46.5c25.7,0,46.5-20.8,46.5-46.5V568.8c6.1-11.3,9.7-24.1,9.7-38.1V381.4c30.9,34.2,65.9,68.8,112.3,84.6c-6.9,3.6-11.6,10.8-11.6,19.1c0,12,9.7,21.7,21.7,21.7h13.6l46.8,263.3l17.9,108.8c0.8,5,3.4,9.4,7,12.6c-14.5,6.7-24.7,21.3-24.7,38.3c0,23.3,18.9,42.2,42.2,42.2c23.3,0,42.2-18.9,42.2-42.2c0-13.2-6.1-25.1-15.6-32.8h199.9c-9.5,7.7-15.6,19.5-15.6,32.8c0,23.3,18.9,42.2,42.2,42.2c23.3,0,42.2-18.9,42.2-42.2c0-16.2-9.1-30.2-22.5-37.3c5.2-4,8.6-10.2,8.6-17.2c0-12-9.7-21.7-21.7-21.7H600.1l-10.8-65.4h275c10,0,18.7-6.8,21.1-16.5l49.9-201.3C937,563.9,935.5,557.1,931.4,551.8z M255.5,444.8L231,411.4l24.4-163.5h0.5l24.5,163.5L256,444.8H255.5z"/></g></g><g></g><g></g><g></g><g></g><g></g><g></g><g></g><g></g><g></g><g></g><g></g><g></g><g></g><g></g><g></g></g>
</svg>