<svg width="382" height="343" xmlns="http://www.w3.org/2000/svg">

 <g>
  <title>background</title>
  <rect fill="none" id="canvas_background" height="345" width="384" y="-1" x="-1"/>
 </g>
 <g>
  <title>Layer 1</title>
  <g id="surface1">
   <path id="svg_1" fill-rule="nonzero" fill="rgb(38.039216%,85.490196%,98.431373%)" d="m381.58594,170.92969c0,-25.19141 -31.54688,-49.07031 -79.91406,-63.875c11.16406,-49.30469 6.20312,-88.52735 -15.65625,-101.08594c-5.03907,-2.94531 -10.92969,-4.33984 -17.36329,-4.33984l0,17.28515c3.56641,0 6.4336,0.69922 8.83985,2.01563c10.53906,6.04687 15.11328,29.07031 11.54687,58.68359c-0.85156,7.28516 -2.24609,14.96094 -3.95312,22.78906c-15.19141,-3.71875 -31.77735,-6.58984 -49.21875,-8.44921c-10.46485,-14.33985 -21.31641,-27.36329 -32.2461,-38.75782c25.26954,-23.48828 48.98829,-36.35937 65.10938,-36.35937l0,-17.28516c-21.31641,0 -49.21875,15.19531 -77.43359,41.55078c-28.21485,-26.20312 -56.11719,-41.24218 -77.4336,-41.24218l0,17.28906c16.04688,0 39.83985,12.78906 65.10938,36.12109c-10.85157,11.39844 -21.70313,24.34375 -32.01172,38.6836c-17.51563,1.85937 -34.10547,4.73046 -49.29688,8.52734c-1.78125,-7.75 -3.10156,-15.26953 -4.03125,-22.48047c-3.64062,-29.61328 0.85157,-52.63672 11.31641,-58.75781c2.32812,-1.39844 5.34766,-2.01563 8.91406,-2.01563l0,-17.28906c-6.51172,0 -12.40234,1.39453 -17.51562,4.33984c-21.78125,12.5586 -26.66407,51.70704 -15.42578,100.85547c-48.21094,14.88282 -79.60547,38.67969 -79.60547,63.79688c0,25.19531 31.54687,49.07031 79.91406,63.875c-11.16016,49.30469 -6.19922,88.52734 15.66016,101.08594c5.03515,2.94531 10.92578,4.34375 17.4375,4.34375c21.3164,0 49.21875,-15.19532 77.43359,-41.55079c28.21484,26.19922 56.12109,41.23829 77.43359,41.23829c6.51172,0 12.40235,-1.39454 17.51953,-4.33985c21.78125,-12.55859 26.66407,-51.70703 15.42579,-100.85156c48.05468,-14.80859 79.44531,-38.68359 79.44531,-63.80078zm-100.91797,-51.70313c-2.86719,10 -6.43359,20.3086 -10.46484,30.61719c-3.17579,-6.19922 -6.51172,-12.40234 -10.15235,-18.60156c-3.5664,-6.20313 -7.36328,-12.25 -11.16406,-18.14063c11.00781,1.62891 21.62891,3.64453 31.78125,6.125zm-35.5,82.55469c-6.04688,10.46875 -12.24609,20.39063 -18.67969,29.61328c-11.55078,1.00781 -23.2539,1.55078 -35.03515,1.55078c-11.70313,0 -23.41016,-0.54297 -34.87891,-1.47265c-6.43359,-9.22266 -12.71484,-19.07032 -18.75781,-29.45703c-5.89063,-10.15625 -11.24219,-20.46485 -16.125,-30.85157c4.80859,-10.39062 10.23437,-20.77734 16.04687,-30.92968c6.04688,-10.46875 12.2461,-20.39063 18.67969,-29.61329c11.55078,-1.00781 23.25391,-1.55078 35.03516,-1.55078c11.70312,0 23.40625,0.54297 34.8789,1.47266c6.4336,9.22266 12.71094,19.07031 18.75781,29.45703c5.89063,10.15625 11.23829,20.46484 16.125,30.85156c-4.88671,10.39063 -10.23437,20.77735 -16.04687,30.92969zm25.03516,-10.07422c4.1875,10.38672 7.7539,20.77344 10.69921,30.85156c-10.15625,2.48047 -20.85156,4.57422 -31.9375,6.19922c3.80079,-5.96875 7.59766,-12.08984 11.16407,-18.37109c3.5625,-6.19922 6.89843,-12.48047 10.07422,-18.67969zm-78.59375,82.71094c-7.21094,-7.44141 -14.41797,-15.73438 -21.55079,-24.80469c6.97657,0.3086 14.10938,0.54297 21.31641,0.54297c7.28516,0 14.49609,-0.15625 21.54688,-0.54297c-6.97266,9.07031 -14.1836,17.36328 -21.3125,24.80469zm-57.67188,-45.66016c-11.00391,-1.625 -21.625,-3.64062 -31.77734,-6.12109c2.86718,-10 6.43359,-20.3125 10.46484,-30.62109c3.17578,6.20312 6.51172,12.40234 10.15234,18.60546c3.64454,6.19922 7.36329,12.2461 11.16016,18.13672zm57.28125,-161.3164c7.21094,7.4414 14.41797,15.73828 21.55078,24.80859c-6.97656,-0.3125 -14.10937,-0.54297 -21.3164,-0.54297c-7.28516,0 -14.4961,0.15235 -21.54688,0.54297c6.97266,-9.07031 14.18359,-17.36719 21.3125,-24.80859zm-57.35547,45.66015c-3.80078,5.96875 -7.59765,12.09375 -11.16406,18.3711c-3.5625,6.20312 -6.89844,12.40234 -10.07422,18.60547c-4.1875,-10.38672 -7.75391,-20.77735 -10.69922,-30.85157c10.15625,-2.40625 20.85156,-4.49609 31.9375,-6.125zm-70.14844,97.05469c-27.4414,-11.70703 -45.1914,-27.05469 -45.1914,-39.22656c0,-12.17188 17.75,-27.59766 45.1914,-39.22266c6.66407,-2.87109 13.95313,-5.42969 21.46875,-7.83203c4.41797,15.19531 10.23438,31.00781 17.44141,47.21094c-7.13281,16.125 -12.86719,31.85937 -17.20703,46.97656c-7.67578,-2.40234 -14.96094,-5.03906 -21.70313,-7.90625zm41.69922,110.77344c-10.53906,-6.04688 -15.11328,-29.07031 -11.54687,-58.67969c0.85156,-7.28906 2.24609,-14.96484 3.95312,-22.79297c15.19141,3.72266 31.77735,6.58985 49.21875,8.44922c10.46485,14.34375 21.31641,27.36328 32.2461,38.76172c-25.26953,23.48828 -48.98828,36.35547 -65.10938,36.35547c-3.48828,-0.07813 -6.43359,-0.77344 -8.76172,-2.09375zm183.85938,-59.07031c3.64062,29.61328 -0.85547,52.63671 -11.31641,58.76171c-2.32812,1.39454 -5.35156,2.01563 -8.91406,2.01563c-16.04688,0 -39.84375,-12.79297 -65.10938,-36.125c10.85157,-11.39453 21.70313,-24.33984 32.01172,-38.68359c17.51563,-1.85938 34.10547,-4.72657 49.29688,-8.52735c1.78125,7.83203 3.17578,15.35156 4.03125,22.5586zm29.83984,-51.70313c-6.66406,2.86719 -13.95312,5.42578 -21.46875,7.82813c-4.41797,-15.19532 -10.23437,-31.00782 -17.4414,-47.21094c7.13281,-16.1211 12.86718,-31.85938 17.20703,-46.97656c7.67578,2.40625 14.96093,5.03906 21.78125,7.91015c27.4375,11.70313 45.1875,27.05078 45.1875,39.22266c-0.07422,12.17187 -17.82422,27.59765 -45.26563,39.22656zm0,0"/>
   <path id="svg_2" fill-rule="nonzero" fill="rgb(38.039216%,85.490196%,98.431373%)" d="m226.79688,170.92969c0,19.5664 -15.85938,35.42578 -35.42188,35.42578c-19.5625,0 -35.42187,-15.85938 -35.42187,-35.42578c0,-19.56641 15.85937,-35.42578 35.42187,-35.42578c19.5625,0 35.42188,15.85937 35.42188,35.42578zm0,0"/>
   <path id="svg_3" fill-rule="nonzero" fill="rgb(96.470588%,63.529412%,18.823529%)" d="m142.79688,253.125l42.13281,29.24609l-18.91016,-97.82812c-26.74219,4.83203 -48.83594,20.15234 -62.9375,41.01953l35.94531,24.94922"/>
   <path id="svg_4" fill-rule="nonzero" fill="rgb(77.647059%,39.607843%,0%)" d="m163.41016,170.83594c-2.69141,0.72265 -4.8711,2.97265 -7.5625,3.68359c-2.875,0.75781 -6.44532,-0.21484 -9.23438,0.76172c-2.78515,0.98047 -4.67969,3.87109 -7.375,5.06641c-2.67969,1.19531 -6.25781,0.73437 -8.84375,2.14062c-2.5664,1.39844 -4.03906,4.60547 -6.5039,6.21094l0.03515,-0.02344c-2.46484,1.60547 -5.99219,1.66016 -8.30469,3.44141c-2.33203,1.79687 -3.35546,5.25781 -5.52734,7.23047c-2.18359,1.98047 -5.59375,2.54687 -7.61328,4.69922c-2.02344,2.15625 -2.57422,5.8125 -4.42969,8.14062c-1.73437,2.17578 -4.67578,3.26172 -6.42187,5.43359l11.44922,7.94532l0.0039,-0.00391c14.10156,-20.86719 36.19531,-36.19141 62.9375,-41.01953l-2.60937,-13.70703zm0,0"/>
   <path id="svg_5" fill-rule="nonzero" fill="rgb(83.529412%,20%,28.627451%)" d="m137.83594,218.23828c3.27344,5.02735 2.52344,11.32422 -1.6836,14.0625c-4.20312,2.74219 -10.26953,0.88672 -13.54296,-4.14062c-3.27735,-5.02735 -2.52344,-11.32422 1.67968,-14.0625c4.20703,-2.74219 10.26953,-0.88672 13.54688,4.14062zm0,0"/>
   <path id="svg_6" fill-rule="nonzero" fill="rgb(83.529412%,20%,28.627451%)" d="m168.99219,245.26563c2.49219,3.82031 1.91797,8.60546 -1.27735,10.6875c-3.19531,2.08203 -7.80078,0.67578 -10.29296,-3.14454c-2.48829,-3.82031 -1.91407,-8.60546 1.28125,-10.6875c3.1914,-2.08203 7.80078,-0.67578 10.28906,3.14454zm0,0"/>
   <path id="svg_7" fill-rule="nonzero" fill="rgb(100%,88.627451%,52.156863%)" d="m149.82422,217.54297l-0.6875,5.73047c-0.35156,2.95703 1.66797,6.05469 4.51172,6.92578c1.58984,0.48437 3.03515,-0.45703 3.23437,-2.10938l0.1836,-1.54296l5.62109,1.71875l0.88281,-7.3711l-5.62109,-1.71875l0.18359,-1.54297c0.19532,-1.64843 -0.92968,-3.3789 -2.51953,-3.86328c-2.84375,-0.87109 -5.4375,0.82031 -5.78906,3.77344zm0,0"/>
   <path id="svg_8" fill-rule="nonzero" fill="rgb(32.54902%,9.411765%,5.882353%)" d="m145.16797,196.73438c-4.46484,2.01562 -8.5625,4.21484 -11.85156,6.35937l1.9375,2.96875c3.18359,-2.07812 7.16406,-4.21094 11.51562,-6.17578l-1.60156,-3.15234zm0,0"/>
   <path id="svg_9" fill-rule="nonzero" fill="rgb(32.54902%,9.411765%,5.882353%)" d="m164.5625,168.71875l-1.75781,0.47266c-1.51563,0.40625 -2.82813,1.20703 -4.09766,1.97656c-1.17578,0.71875 -2.28906,1.39453 -3.46094,1.70312c-1.17187,0.3086 -2.53906,0.28516 -3.98828,0.26172c-1.78906,-0.03125 -3.64062,-0.0625 -5.34375,0.53516c-0.63281,0.22266 -1.26172,0.53906 -1.91406,0.96094c-0.86328,0.5664 -1.65234,1.24218 -2.41016,1.89453c-0.73437,0.63281 -1.42578,1.22656 -2.15234,1.70312c-0.34766,0.22266 -0.66797,0.40235 -0.99219,0.54297c-1.08984,0.48828 -2.41797,0.66406 -3.82422,0.85547c-1.73828,0.23047 -3.53515,0.47266 -5.10937,1.32813c-0.17188,0.09375 -0.34766,0.19921 -0.51563,0.3125c-1.30468,0.84765 -2.32031,2.04687 -3.29687,3.20703c-0.90234,1.0664 -1.75391,2.07422 -2.75781,2.73047c-1.00391,0.65234 -2.26953,1.02343 -3.60938,1.41796c-1.45703,0.42969 -2.96094,0.8711 -4.26562,1.72266c-0.17188,0.10938 -0.33594,0.22656 -0.49219,0.34766c-1.42188,1.09375 -2.36719,2.64062 -3.28125,4.13672c-0.74219,1.21093 -1.44141,2.35156 -2.32422,3.15625c-0.26172,0.23437 -0.55469,0.46093 -0.89844,0.68359c-0.73047,0.47656 -1.55468,0.86719 -2.42578,1.28516c-0.90625,0.42968 -1.83984,0.875 -2.70703,1.4414c-0.65234,0.42578 -1.19531,0.8711 -1.65234,1.36328c-1.23438,1.3125 -1.95313,3.01953 -2.64844,4.67188c-0.5625,1.33203 -1.09375,2.59375 -1.84766,3.54297c-0.75781,0.94531 -1.82422,1.6914 -2.95703,2.48047c-1.21875,0.84765 -2.47656,1.72656 -3.46484,2.94921l-1.13672,1.41016l13.15625,9.13281l1.64844,1.14063l34.29687,23.80078l1.38672,-2.75391l-34.34766,-23.83593c0.02735,-0.04297 0.05469,-0.08204 0.08204,-0.1211c0.39843,-0.5625 0.79687,-1.12109 1.20703,-1.67578c0.02343,-0.03516 0.05078,-0.07031 0.07422,-0.10547c0.86718,-1.17187 1.75781,-2.32422 2.67187,-3.45312c0.00781,-0.01172 0.01563,-0.01953 0.02344,-0.03125c0.45312,-0.55469 0.91015,-1.10547 1.37109,-1.65235c0.02735,-0.02734 0.05078,-0.05859 0.07422,-0.08593c0.45313,-0.53516 0.91797,-1.06641 1.38281,-1.58985c0.03125,-0.03515 0.0625,-0.07031 0.09375,-0.10547c0.46485,-0.52343 0.9375,-1.03906 1.41016,-1.54687c0.03516,-0.03516 0.06641,-0.07031 0.09766,-0.10547c0.48046,-0.51172 0.96484,-1.01953 1.45312,-1.51953c0.02734,-0.02735 0.05469,-0.05469 0.08594,-0.08594c0.49609,-0.50781 0.99609,-1.00781 1.50781,-1.50391c0.01563,-0.01562 0.03125,-0.03515 0.05078,-0.05078c2.62891,-2.5625 5.40625,-4.96875 8.32422,-7.21484c0.02344,-0.01563 0.05078,-0.03516 0.07422,-0.05469c0.55469,-0.42578 1.11328,-0.84375 1.67578,-1.25781c0.04688,-0.03516 0.09766,-0.07031 0.14453,-0.10547c0.54688,-0.40234 1.10156,-0.79297 1.65625,-1.18359c0.06641,-0.04688 0.13281,-0.09375 0.19922,-0.14063c0.54688,-0.3789 1.09375,-0.75 1.64844,-1.11719c0.13281,-0.08593 0.26172,-0.17578 0.39453,-0.26171c0.16797,-0.10938 0.33594,-0.21875 0.50391,-0.32813c0.16015,-0.10547 0.32031,-0.20703 0.48437,-0.3125c0.16797,-0.10937 0.33984,-0.21484 0.51172,-0.32422c0.15625,-0.10156 0.31641,-0.19922 0.47656,-0.29687c0.17188,-0.10938 0.34766,-0.21875 0.52344,-0.32422c0.15625,-0.09766 0.31641,-0.19531 0.47266,-0.28906c0.17578,-0.10938 0.35156,-0.21485 0.52734,-0.32032c0.16016,-0.09375 0.32422,-0.1914 0.48437,-0.28515c0.17579,-0.10157 0.35157,-0.20703 0.52735,-0.3086c0.16406,-0.09375 0.32422,-0.1875 0.48828,-0.28125c0.17578,-0.10156 0.35156,-0.19922 0.52344,-0.29687c0.16797,-0.09766 0.33984,-0.19141 0.50781,-0.28516c0.17187,-0.09375 0.33984,-0.1914 0.51172,-0.28515c0.17578,-0.09375 0.35547,-0.1875 0.53125,-0.28516c0.16406,-0.08984 0.32812,-0.17969 0.49609,-0.26563c0.1836,-0.09765 0.3711,-0.19531 0.55469,-0.29296c0.16016,-0.08204 0.31641,-0.16797 0.47656,-0.25c0.19531,-0.10157 0.39063,-0.19922 0.58594,-0.29688c0.15234,-0.07812 0.30078,-0.15625 0.45312,-0.23047c0.21094,-0.10547 0.42579,-0.21094 0.63672,-0.3164c0.13672,-0.06641 0.26953,-0.13282 0.40625,-0.19922c0.23438,-0.11328 0.47266,-0.22657 0.71094,-0.33985c0.11328,-0.05078 0.22656,-0.10547 0.33984,-0.16015c0.26954,-0.12891 0.53907,-0.25 0.8086,-0.375c0.08203,-0.03907 0.16406,-0.07813 0.25,-0.11328c0.33203,-0.15235 0.66797,-0.30469 1,-0.44922c0.02344,-0.01172 0.04297,-0.01953 0.0625,-0.02735c1.4414,-0.63672 2.89844,-1.23437 4.37109,-1.79687c0.01563,-0.00391 0.02735,-0.01172 0.04297,-0.01563c0.35156,-0.13281 0.70313,-0.26562 1.05469,-0.39453c0.05078,-0.01953 0.10156,-0.03906 0.15234,-0.05469c0.31641,-0.11718 0.63281,-0.23046 0.94922,-0.34375c0.07813,-0.02734 0.15625,-0.05468 0.23047,-0.07812c0.29297,-0.10547 0.58594,-0.20313 0.875,-0.30469c0.09766,-0.03125 0.19141,-0.0625 0.28516,-0.09375c0.27734,-0.09375 0.55078,-0.1875 0.82812,-0.27734c0.10938,-0.03516 0.21484,-0.06641 0.32422,-0.10156c0.26562,-0.08594 0.52734,-0.17188 0.79297,-0.25391c0.12109,-0.03906 0.23828,-0.07422 0.35937,-0.10938c0.25391,-0.07812 0.50782,-0.15625 0.76172,-0.23437c0.13281,-0.03906 0.26172,-0.07422 0.39063,-0.11328c0.24609,-0.07422 0.49218,-0.14453 0.73437,-0.21485c0.14063,-0.03906 0.28125,-0.07812 0.42188,-0.11718c0.23437,-0.06641 0.47265,-0.13282 0.71093,-0.19922c0.14844,-0.03906 0.29297,-0.07813 0.44141,-0.11719c0.23047,-0.0625 0.46484,-0.125 0.69531,-0.18359c0.15625,-0.03907 0.3086,-0.07813 0.46485,-0.11719c0.22265,-0.05859 0.44922,-0.11719 0.67578,-0.17188c0.16015,-0.03906 0.32031,-0.07812 0.48437,-0.11718c0.21875,-0.05078 0.44141,-0.10547 0.66016,-0.15625c0.16797,-0.03907 0.33594,-0.07813 0.50391,-0.11719c0.21484,-0.04688 0.42968,-0.09766 0.64843,-0.14453c0.17188,-0.03906 0.34375,-0.07422 0.51563,-0.11328c0.21484,-0.04688 0.42578,-0.08985 0.64062,-0.13672c0.17578,-0.03516 0.35157,-0.07031 0.53125,-0.10547c0.125,-0.02734 0.2461,-0.05078 0.3711,-0.07422l0.64843,3.35938c-5.08203,1.05468 -10.80468,2.85937 -16.64062,5.2539l1.51953,3.1875c5.53906,-2.27344 10.95313,-3.99609 15.78125,-5.03125l16.5625,85.67578l-39.23047,-27.22656l-1.38672,2.75391l45.03907,31.25781l-19.58204,-101.30078l-2.99609,-15.74219zm-68.73047,47.65625c1.22656,-0.85156 2.4961,-1.73828 3.48438,-2.97266c0.98437,-1.23828 1.61718,-2.73828 2.22656,-4.1875c0.62891,-1.49218 1.22266,-2.90234 2.13281,-3.875c0.32031,-0.34375 0.71485,-0.66406 1.19531,-0.97656c0.73047,-0.47656 1.55079,-0.86719 2.42188,-1.28125c0.90625,-0.43359 1.84375,-0.8789 2.71094,-1.44531c0.45703,-0.29688 0.85156,-0.60156 1.21093,-0.92578c1.15625,-1.05078 1.98829,-2.41016 2.79297,-3.72266c0.82813,-1.35547 1.60938,-2.63281 2.66016,-3.4414c0.10547,-0.08204 0.21484,-0.16016 0.33203,-0.23829c0.99609,-0.64843 2.26172,-1.01953 3.60156,-1.41406c1.44922,-0.42578 2.94922,-0.86719 4.25782,-1.71094l0.03515,-0.02343c1.30078,-0.85547 2.3086,-2.05078 3.28516,-3.20313c0.89844,-1.0664 1.75,-2.07422 2.75,-2.72265c0.11328,-0.07813 0.23437,-0.14844 0.34765,-0.21094c1.16407,-0.63281 2.65235,-0.83203 4.22266,-1.04297c1.52734,-0.20703 3.10547,-0.41797 4.53516,-1.05078c0.4414,-0.19922 0.8789,-0.4375 1.33593,-0.73828c0.86719,-0.5625 1.65625,-1.24219 2.41407,-1.89453c0.73437,-0.62891 1.42187,-1.22266 2.14843,-1.69922c0.48438,-0.3125 0.9375,-0.54297 1.37891,-0.69922c1.25781,-0.44141 2.78516,-0.41406 4.40625,-0.38672c1.57422,0.02734 3.19922,0.05469 4.73047,-0.34766c1.52734,-0.40234 2.84766,-1.20703 4.12891,-1.98437c0.58593,-0.35938 1.15625,-0.70703 1.72265,-1.00391l1.89453,9.94531c-0.32031,0.0625 -0.64062,0.12891 -0.96093,0.19532c-0.06641,0.01172 -0.13282,0.02343 -0.19532,0.03906c-0.40234,0.08203 -0.80468,0.16797 -1.20312,0.25391c-0.09766,0.02343 -0.19141,0.04296 -0.28516,0.0664c-0.30469,0.06641 -0.60547,0.13281 -0.91015,0.20313c-0.13672,0.03515 -0.27735,0.0664 -0.41407,0.10156c-0.25781,0.05859 -0.51562,0.12109 -0.77343,0.18359c-0.15235,0.03907 -0.30079,0.07422 -0.45313,0.11328c-0.24609,0.0625 -0.48828,0.1211 -0.73047,0.1836c-0.16015,0.04297 -0.3164,0.08594 -0.47265,0.125c-0.23829,0.0625 -0.47266,0.125 -0.70704,0.1875c-0.16015,0.04297 -0.32031,0.08984 -0.48437,0.13281c-0.23047,0.06641 -0.46094,0.12891 -0.6875,0.19531c-0.16406,0.04688 -0.32422,0.09375 -0.48828,0.14063c-0.22656,0.0664 -0.45703,0.13281 -0.6836,0.19922c-0.16015,0.04687 -0.32421,0.09765 -0.48437,0.14843c-0.22656,0.06641 -0.45313,0.13672 -0.67969,0.20704c-0.16015,0.05078 -0.32031,0.10156 -0.48047,0.15234c-0.22656,0.07031 -0.45703,0.14453 -0.68359,0.21875c-0.15625,0.05078 -0.3125,0.10156 -0.46875,0.15625c-0.23047,0.07422 -0.46094,0.15234 -0.69141,0.23047c-0.15234,0.05078 -0.30468,0.10156 -0.45312,0.15625c-0.23438,0.07812 -0.46875,0.16015 -0.70313,0.24219c-0.14453,0.05468 -0.29297,0.10546 -0.4414,0.15625c-0.23438,0.08593 -0.47266,0.17187 -0.71094,0.26171c-0.14063,0.05079 -0.28125,0.10157 -0.42188,0.15625c-0.24218,0.08985 -0.48828,0.17969 -0.73046,0.27344c-0.13282,0.05078 -0.26563,0.10156 -0.39844,0.15235c-0.25391,0.10156 -0.50781,0.19921 -0.75781,0.30078c-0.1211,0.04687 -0.24219,0.09375 -0.36329,0.14453c-0.26953,0.10547 -0.53906,0.21484 -0.80468,0.32812c-0.10547,0.04297 -0.21094,0.08203 -0.3125,0.125c-0.29297,0.125 -0.58594,0.2461 -0.87891,0.3711c-0.07812,0.03515 -0.15625,0.0664 -0.23437,0.10156c-0.34375,0.14844 -0.6875,0.29687 -1.03125,0.45312c-0.02344,0.00782 -0.04688,0.01954 -0.07032,0.02735c-1.49609,0.66797 -2.97656,1.375 -4.4375,2.11719c-0.05078,0.02343 -0.10156,0.05078 -0.15625,0.07812c-0.30468,0.15625 -0.61328,0.31641 -0.91797,0.47656c-0.07812,0.03907 -0.16015,0.08203 -0.23828,0.125c-0.27734,0.14453 -0.55468,0.29297 -0.83203,0.44141c-0.09375,0.05078 -0.1875,0.10547 -0.28515,0.15625c-0.25782,0.14062 -0.51563,0.28516 -0.77735,0.42578c-0.10547,0.0625 -0.21094,0.12109 -0.3164,0.17969c-0.2461,0.13672 -0.49219,0.27734 -0.73438,0.41797c-0.11719,0.0664 -0.23047,0.1289 -0.34375,0.19531c-0.23437,0.13672 -0.46875,0.27344 -0.70312,0.41016c-0.1211,0.07421 -0.2461,0.14453 -0.36719,0.21875c-0.22266,0.13281 -0.44922,0.26562 -0.67188,0.40234c-0.1289,0.07812 -0.25781,0.15625 -0.38281,0.23437c-0.21484,0.13282 -0.42969,0.26563 -0.64453,0.39844c-0.13672,0.08203 -0.26953,0.16797 -0.40625,0.25391c-0.20313,0.1289 -0.40625,0.25781 -0.60938,0.38672c-0.14453,0.09375 -0.28906,0.18359 -0.43359,0.27734c-0.07812,0.05078 -0.15625,0.10156 -0.23828,0.15625c-0.11328,0.07031 -0.22266,0.14844 -0.33594,0.22266c-0.09375,0.05859 -0.1875,0.11718 -0.27734,0.17968c-0.0586,0.03907 -0.11719,0.07813 -0.17969,0.1211c-0.17969,0.12109 -0.36328,0.24219 -0.54687,0.36719c-0.14063,0.09375 -0.28125,0.1914 -0.42188,0.28515c-0.20312,0.13672 -0.39844,0.27344 -0.59766,0.41016c-0.125,0.08594 -0.24609,0.17187 -0.37109,0.25781c-0.21094,0.15234 -0.42578,0.30078 -0.64062,0.45313c-0.10547,0.07812 -0.21094,0.15234 -0.31641,0.23046c-0.22656,0.16016 -0.45313,0.32813 -0.67969,0.49219c-0.08984,0.06641 -0.18359,0.13281 -0.27344,0.19922c-0.24218,0.17578 -0.48046,0.35547 -0.71875,0.53516c-0.07421,0.05468 -0.15234,0.11328 -0.22656,0.16797c-0.25,0.1914 -0.5,0.38281 -0.75,0.57421c-0.0625,0.05079 -0.125,0.09766 -0.1875,0.14454c-0.26172,0.20312 -0.52344,0.41015 -0.78515,0.61718c-0.04688,0.03516 -0.09375,0.07422 -0.14454,0.10938c-0.27343,0.21875 -0.54296,0.4375 -0.8164,0.65625c-0.03516,0.03125 -0.07031,0.05859 -0.10547,0.08594c-0.28125,0.23046 -0.5625,0.46093 -0.84375,0.69531c-0.01953,0.01953 -0.04297,0.03906 -0.06641,0.05859c-0.29297,0.24219 -0.58203,0.48828 -0.87109,0.73438c-0.01172,0.00781 -0.02344,0.01953 -0.03516,0.03125c-0.30078,0.2539 -0.59765,0.51172 -0.89453,0.77343c-4.49219,3.94141 -8.60937,8.28516 -12.33203,13.01563c-0.01172,0.01172 -0.01953,0.02344 -0.03125,0.03516c-0.23437,0.30078 -0.46875,0.60156 -0.69922,0.90234c-0.0664,0.08594 -0.1289,0.17187 -0.19531,0.25781c-0.17578,0.23047 -0.35156,0.46094 -0.52344,0.69141c-0.09375,0.125 -0.18359,0.24609 -0.27344,0.37109c-0.14843,0.19531 -0.29296,0.39063 -0.4375,0.58985c-0.10546,0.14062 -0.20703,0.28515 -0.30859,0.42968c-0.13281,0.17969 -0.26172,0.35938 -0.39062,0.53907c-0.10938,0.15625 -0.21875,0.30859 -0.32813,0.46484c-0.10937,0.15234 -0.21875,0.30859 -0.32422,0.46484l-8.30469,-5.76562c0.5,-0.40235 1.05079,-0.78516 1.61719,-1.17969zm0,0"/>
   <path id="svg_10" fill-rule="nonzero" fill="rgb(32.54902%,9.411765%,5.882353%)" d="m123.32422,212.61328c-4.88281,3.1836 -5.76172,10.51953 -1.95703,16.35938c3.80469,5.83593 10.87109,7.99609 15.7539,4.8125c4.88282,-3.17969 5.76172,-10.51953 1.95704,-16.35547c-3.80469,-5.83985 -10.8711,-8 -15.75391,-4.81641zm11.86328,18.20703c-3.51562,2.28907 -8.60156,0.73438 -11.33594,-3.46875c-2.73828,-4.19922 -2.10937,-9.48047 1.40625,-11.76953c3.51563,-2.28906 8.59766,-0.73437 11.33594,3.46485c2.73828,4.19921 2.10547,9.48046 -1.40625,11.77343zm0,0"/>
   <path id="svg_11" fill-rule="nonzero" fill="rgb(32.54902%,9.411765%,5.882353%)" d="m156.18359,253.61719c3.01563,4.6289 8.625,6.34375 12.5,3.82031c3.875,-2.52734 4.57032,-8.34766 1.55079,-12.98047c-3.01563,-4.63281 -8.625,-6.34765 -12.5,-3.82031c-3.875,2.52344 -4.57032,8.34766 -1.55079,12.98047zm3.48438,-10.01563c2.50781,-1.63281 6.13281,-0.52343 8.08594,2.47266c1.94922,2.99609 1.5,6.76172 -1.00391,8.39453c-2.50781,1.63281 -6.13281,0.52344 -8.08594,-2.47266c-1.94922,-2.99218 -1.5,-6.76171 1.00391,-8.39453zm0,0"/>
   <path id="svg_12" fill-rule="nonzero" fill="rgb(32.54902%,9.411765%,5.882353%)" d="m153.45313,231.82031c1.1875,0.36328 2.35937,0.22266 3.30078,-0.39062c0.92187,-0.60156 1.51562,-1.58594 1.67968,-2.78125l5.6211,1.71875l1.26953,-10.61719l-5.62109,-1.71875c0.25781,-2.51562 -1.47657,-5.14453 -3.89454,-5.88281c-1.79296,-0.55078 -3.5664,-0.33985 -4.99218,0.58984c-1.42578,0.92969 -2.33203,2.46485 -2.55469,4.32813l-0.6875,5.73047c-0.45703,3.84375 2.17969,7.89062 5.87891,9.02343zm-2.75391,-8.0664l0.68359,-5.73438c0.1211,-0.99609 0.60547,-1.8164 1.36719,-2.3125c0.76172,-0.49609 1.71094,-0.60937 2.66797,-0.3164c0.72656,0.22265 1.24219,1.01562 1.15234,1.76562l-0.3789,3.16797l5.62109,1.71484l-0.49219,4.12891l-5.62109,-1.71875l-0.37891,3.16406c-0.04297,0.36719 -0.22265,0.66797 -0.5,0.84766c-0.28125,0.18359 -0.6289,0.22265 -0.97656,0.11719c-1.98047,-0.60547 -3.39062,-2.76954 -3.14453,-4.82422zm0,0"/>
   <path id="svg_13" fill-rule="nonzero" fill="rgb(96.470588%,63.529412%,18.823529%)" d="m301.05078,139.19922l-4.41797,-51.10156l-63.17578,77.03906c20.79688,17.49219 46.69531,24.70703 71.75781,22.22656l-3.76953,-43.59375"/>
   <path id="svg_14" fill-rule="nonzero" fill="rgb(77.647059%,39.607843%,0%)" d="m224.57422,175.90234c2.27734,1.60938 5.40234,1.85157 7.66406,3.46485c2.42188,1.73047 3.95313,5.09765 6.48828,6.61719c2.53125,1.51953 5.96875,1.13281 8.60938,2.4375c2.6289,1.30078 4.5625,4.35156 7.29297,5.4414c2.71484,1.08203 6.12109,0.16406 8.93359,1.03516l-0.03906,-0.01172c2.80859,0.87109 5.10156,3.55078 7.95312,4.19141c2.8711,0.64453 6.1875,-0.77344 9.09375,-0.36329c2.91407,0.41407 5.53125,2.67579 8.47657,2.85547c2.95312,0.17969 6.11718,-1.73437 9.08984,-1.79297c2.78125,-0.05468 5.49609,1.51563 8.28125,1.47266l-1.19922,-13.88672l-0.00391,0c-25.0625,2.48047 -50.96093,-4.73437 -71.76171,-22.22265l-8.87891,10.76171zm0,0"/>
   <path id="svg_15" fill-rule="nonzero" fill="rgb(83.529412%,20%,28.627451%)" d="m277.37891,165.30078c1.77343,-5.73047 7.10156,-9.17578 11.89453,-7.6914c4.79297,1.48828 7.24219,7.33593 5.46875,13.07031c-1.77735,5.73047 -7.10156,9.17578 -11.89453,7.6875c-4.79688,-1.48438 -7.24219,-7.33203 -5.46875,-13.06641zm0,0"/>
   <path id="svg_16" fill-rule="nonzero" fill="rgb(83.529412%,20%,28.627451%)" d="m278.26953,124.0625c1.34766,-4.35547 5.39453,-6.97266 9.03906,-5.84375c3.64063,1.125 5.5,5.57422 4.15235,9.92969c-1.34766,4.35547 -5.39453,6.96875 -9.03906,5.83984c-3.64063,-1.125 -5.5,-5.57031 -4.15235,-9.92578zm0,0"/>
   <path id="svg_17" fill-rule="nonzero" fill="rgb(100%,88.627451%,52.156863%)" d="m269.1875,156.51953l4.84766,-3.13281c2.5,-1.61328 3.59375,-5.14844 2.44531,-7.89453c-0.64063,-1.53125 -2.29297,-2.04297 -3.6875,-1.14063l-1.30469,0.84375l-2.26953,-5.42578l-6.23437,4.03125l2.26953,5.42578l-1.30469,0.84375c-1.39453,0.89844 -2.00391,2.875 -1.36328,4.40625c1.14844,2.74219 4.10156,3.66016 6.60156,2.04297zm0,0"/>
   <path id="svg_18" fill-rule="nonzero" fill="rgb(32.54902%,9.411765%,5.882353%)" d="m256.15234,173.39453c4.40235,2.14844 8.71094,3.89453 12.46094,5.0586l1.04688,-3.38672c-3.62891,-1.125 -7.81641,-2.82422 -12.10547,-4.91797l-1.40235,3.24609zm0,0"/>
   <path id="svg_19" fill-rule="nonzero" fill="rgb(32.54902%,9.411765%,5.882353%)" d="m222.21094,176.36719l1.48828,1.05078c1.28125,0.90625 2.73437,1.40625 4.13672,1.89062c1.30469,0.44532 2.53515,0.8711 3.51953,1.57422c0.98828,0.70313 1.84375,1.77344 2.75,2.90235c1.12109,1.39843 2.27734,2.84375 3.82422,3.76953c0.57812,0.34765 1.21875,0.6289 1.96484,0.85937c0.98438,0.30469 2.00781,0.47657 2.9961,0.64453c0.95312,0.16016 1.85156,0.3125 2.68359,0.57032c0.39453,0.12109 0.73828,0.25781 1.05078,0.41406c1.07422,0.52734 2.05859,1.4375 3.10156,2.39844c1.28907,1.1875 2.6211,2.41406 4.28516,3.07812c0.18359,0.07422 0.375,0.14063 0.57031,0.20313c1.48828,0.46093 3.0586,0.47265 4.57422,0.48828c1.39453,0.01172 2.71484,0.02344 3.86328,0.375c1.14453,0.35547 2.23828,1.09375 3.39453,1.87109c1.26172,0.84766 2.5625,1.72266 4.05078,2.1836c0.19532,0.05859 0.39063,0.11328 0.58204,0.15625c1.75,0.39453 3.54296,0.13281 5.28125,-0.11719c1.40234,-0.20313 2.72656,-0.39844 3.91015,-0.22656c0.34766,0.04687 0.70703,0.1289 1.10156,0.2539c0.83204,0.25781 1.66016,0.64063 2.53516,1.04297c0.91016,0.42188 1.85156,0.85547 2.83984,1.16406c0.74219,0.23047 1.42969,0.35938 2.10547,0.40235c1.79688,0.10937 3.57032,-0.42969 5.28125,-0.94922c1.38672,-0.41797 2.69922,-0.81641 3.91016,-0.83985c1.21094,-0.02343 2.46484,0.32032 3.79297,0.6875c1.43359,0.39844 2.91406,0.8086 4.48047,0.78516l1.8164,-0.02734l-1.3789,-15.95703l-0.17578,-1.9961l-3.59766,-41.59765l-3.00391,0.6914l3.60157,41.66016c-0.04688,0.0039 -0.09766,0.00781 -0.14454,0.01172c-0.6875,0.05468 -1.375,0.10547 -2.0625,0.14453c-0.03906,0 -0.08203,0.0039 -0.125,0.00781c-1.45703,0.08203 -2.91406,0.13281 -4.36328,0.15234c-0.01562,0 -0.02734,0 -0.03906,0c-0.71875,0.00782 -1.43359,0.00782 -2.14844,0c-0.03906,0 -0.07422,0 -0.11328,0c-0.70312,-0.00781 -1.40625,-0.02734 -2.10547,-0.05078c-0.04687,0 -0.09375,-0.0039 -0.14453,-0.0039c-0.69531,-0.02344 -1.39453,-0.0586 -2.08984,-0.09766c-0.04688,-0.00391 -0.09375,-0.00391 -0.14063,-0.00781c-0.70312,-0.04297 -1.40234,-0.08985 -2.09765,-0.14844c-0.03907,-0.00391 -0.08203,-0.00391 -0.1211,-0.00781c-0.70703,-0.0586 -1.41406,-0.125 -2.12109,-0.19922c-0.02344,-0.00391 -0.04688,-0.00391 -0.07031,-0.00781c-3.65235,-0.38672 -7.27735,-0.98828 -10.86719,-1.79688c-0.03125,-0.00781 -0.0625,-0.01562 -0.09375,-0.02344c-0.67969,-0.15234 -1.35547,-0.3164 -2.03516,-0.48437c-0.05859,-0.01563 -0.11718,-0.03125 -0.17578,-0.04297c-0.65625,-0.16797 -1.3125,-0.33984 -1.96484,-0.51953c-0.08203,-0.02344 -0.16016,-0.04297 -0.23828,-0.06641c-0.63672,-0.17578 -1.27735,-0.35937 -1.91016,-0.55078c-0.15234,-0.04687 -0.30469,-0.09375 -0.45312,-0.14062c-0.19532,-0.0586 -0.38672,-0.11719 -0.57813,-0.17578c-0.18359,-0.0586 -0.36328,-0.11329 -0.54687,-0.17188c-0.19141,-0.0625 -0.38282,-0.125 -0.57813,-0.1875c-0.17578,-0.05859 -0.35547,-0.11719 -0.53125,-0.17578c-0.19531,-0.0625 -0.39062,-0.12891 -0.58594,-0.19531c-0.17578,-0.0586 -0.34765,-0.1211 -0.52343,-0.17969c-0.19532,-0.06641 -0.39063,-0.13672 -0.58204,-0.20313c-0.17578,-0.0625 -0.35156,-0.125 -0.52734,-0.1914c-0.19141,-0.06641 -0.38281,-0.13672 -0.57422,-0.20703c-0.17969,-0.06641 -0.35547,-0.13282 -0.53125,-0.19532c-0.1875,-0.07031 -0.375,-0.14062 -0.5625,-0.21484c-0.18359,-0.06641 -0.36328,-0.13672 -0.54297,-0.20703c-0.17968,-0.07031 -0.36328,-0.14063 -0.54687,-0.21484c-0.1836,-0.07422 -0.3711,-0.14844 -0.55469,-0.22266c-0.17578,-0.07031 -0.35156,-0.14063 -0.52344,-0.21094c-0.19531,-0.08203 -0.38672,-0.16015 -0.58203,-0.24219c-0.16406,-0.07031 -0.33203,-0.13671 -0.49609,-0.20703c-0.20313,-0.08593 -0.40235,-0.17578 -0.60547,-0.26172c-0.15234,-0.0664 -0.30859,-0.13281 -0.46484,-0.19921c-0.21485,-0.09766 -0.4336,-0.19532 -0.64844,-0.28907c-0.13672,-0.0625 -0.27344,-0.125 -0.41406,-0.1875c-0.23829,-0.10547 -0.47657,-0.21875 -0.71094,-0.32812c-0.11719,-0.05469 -0.23047,-0.10547 -0.34375,-0.16016c-0.26953,-0.125 -0.53906,-0.2539 -0.80469,-0.38281c-0.08203,-0.03906 -0.16406,-0.07813 -0.25,-0.11719c-0.32812,-0.16015 -0.65625,-0.32031 -0.98437,-0.48437c-0.01954,-0.01172 -0.03907,-0.01953 -0.0586,-0.03125c-1.41015,-0.70313 -2.80078,-1.44141 -4.17578,-2.21485c-0.01172,-0.00781 -0.02344,-0.01562 -0.03906,-0.02343c-0.32422,-0.1836 -0.65235,-0.3711 -0.97656,-0.5586c-0.04688,-0.02734 -0.09375,-0.05469 -0.14063,-0.08203c-0.28906,-0.17187 -0.57812,-0.33984 -0.86719,-0.51172c-0.07031,-0.04297 -0.14062,-0.08594 -0.21093,-0.1289c-0.26563,-0.15625 -0.53125,-0.31641 -0.79297,-0.47657c-0.08594,-0.05468 -0.16797,-0.10937 -0.25391,-0.16015c-0.24609,-0.15235 -0.49609,-0.30469 -0.74219,-0.46094c-0.09375,-0.0625 -0.1914,-0.12109 -0.28515,-0.18359c-0.23438,-0.14844 -0.46875,-0.29688 -0.70313,-0.44922c-0.10156,-0.06641 -0.20703,-0.13672 -0.3125,-0.20313c-0.22265,-0.14844 -0.44531,-0.29297 -0.66406,-0.4414c-0.11328,-0.07422 -0.22656,-0.15235 -0.33984,-0.22657c-0.21094,-0.14062 -0.42188,-0.28515 -0.63282,-0.42968c-0.12109,-0.08204 -0.23828,-0.16407 -0.35937,-0.2461c-0.20313,-0.14062 -0.40625,-0.28125 -0.60938,-0.42187c-0.12109,-0.08594 -0.24609,-0.17578 -0.37109,-0.26172c-0.19531,-0.14063 -0.39063,-0.28125 -0.58594,-0.42188c-0.1289,-0.08984 -0.25781,-0.18359 -0.38672,-0.27734c-0.1875,-0.13672 -0.375,-0.27734 -0.5625,-0.41406c-0.13281,-0.09766 -0.26562,-0.19922 -0.39843,-0.29688c-0.1836,-0.13672 -0.36329,-0.27344 -0.54688,-0.41015c-0.13672,-0.10157 -0.27344,-0.20704 -0.40625,-0.3125c-0.17578,-0.13282 -0.35156,-0.26954 -0.52734,-0.40235c-0.14063,-0.10937 -0.28125,-0.21875 -0.41797,-0.32812c-0.17188,-0.13282 -0.33985,-0.26953 -0.51172,-0.40625c-0.14063,-0.10938 -0.28125,-0.22657 -0.42578,-0.33985c-0.09766,-0.07812 -0.19531,-0.15625 -0.29297,-0.23828l2.17187,-2.64453c4.0586,3.23828 9.10157,6.48828 14.67188,9.44922l1.48047,-3.20703c-5.28516,-2.8086 -10.07422,-5.875 -13.95313,-8.92969l55.33203,-67.47266l4.11719,47.58204l3.00391,-0.69532l-4.72266,-54.62109l-65.42187,79.77734l-10.19922,12.35938zm80.57031,22.44531c-1.44531,-0.40234 -2.9375,-0.8125 -4.51562,-0.78125c-1.58204,0.03125 -3.14063,0.50391 -4.64454,0.96094c-1.55078,0.46875 -3.01562,0.91406 -4.34375,0.83203c-0.46875,-0.02734 -0.96484,-0.125 -1.51562,-0.29688c-0.83203,-0.2539 -1.65625,-0.63671 -2.53125,-1.04296c-0.91016,-0.42188 -1.85547,-0.85547 -2.84375,-1.16407c-0.51953,-0.16015 -1.00781,-0.27343 -1.48828,-0.33984c-1.54688,-0.21875 -3.1211,0.00781 -4.64453,0.23047c-1.57032,0.22656 -3.05469,0.4414 -4.34766,0.15234c-0.12891,-0.03125 -0.26172,-0.0664 -0.39453,-0.10547c-1.13672,-0.35547 -2.23047,-1.08984 -3.39063,-1.86718c-1.2539,-0.84375 -2.55078,-1.71485 -4.03515,-2.1836l-0.03906,-0.01172c-1.48829,-0.45312 -3.05469,-0.46875 -4.5625,-0.48047c-1.39844,-0.01171 -2.71485,-0.02343 -3.85157,-0.3789c-0.13281,-0.03906 -0.26562,-0.08594 -0.38672,-0.13281c-1.23046,-0.49219 -2.33203,-1.50782 -3.5,-2.58204c-1.13281,-1.04687 -2.30468,-2.125 -3.70312,-2.8164c-0.43359,-0.21485 -0.89844,-0.39844 -1.42188,-0.5586c-0.98828,-0.30859 -2.01171,-0.48046 -3.0039,-0.64843c-0.94922,-0.16016 -1.84766,-0.3125 -2.67578,-0.57032c-0.55078,-0.17187 -1.01563,-0.37109 -1.41797,-0.61328c-1.14063,-0.68359 -2.09766,-1.8789 -3.11328,-3.14062c-0.98438,-1.23047 -2,-2.5 -3.28907,-3.41797c-1.28515,-0.91797 -2.75,-1.42188 -4.16406,-1.91016c-0.64844,-0.22265 -1.28125,-0.4375 -1.87109,-0.6875l6.4414,-7.80859c0.25391,0.20703 0.50782,0.41016 0.76172,0.61719c0.05078,0.03906 0.10157,0.08203 0.15625,0.125c0.32032,0.25781 0.64063,0.51172 0.96485,0.76172c0.07812,0.05859 0.15625,0.11718 0.23047,0.17968c0.24609,0.1875 0.49218,0.37891 0.73828,0.56641c0.11328,0.08594 0.22656,0.17187 0.33984,0.25781c0.21484,0.15625 0.42578,0.31641 0.63672,0.47656c0.12891,0.09375 0.25391,0.1836 0.37891,0.27735c0.20312,0.14844 0.40625,0.29687 0.60937,0.4414c0.13281,0.09766 0.26563,0.19141 0.39844,0.28516c0.19922,0.14063 0.39453,0.28516 0.59375,0.42188c0.13672,0.09765 0.27344,0.1914 0.41015,0.28906c0.19922,0.13672 0.39454,0.27344 0.58985,0.40625c0.14062,0.09765 0.28125,0.1914 0.41797,0.28515c0.19922,0.13282 0.39453,0.26563 0.59375,0.39844c0.14062,0.09375 0.28125,0.1875 0.42187,0.28125c0.19922,0.12891 0.39453,0.25781 0.59375,0.38672c0.14063,0.09375 0.28516,0.18359 0.42578,0.27344c0.19922,0.1289 0.40235,0.25781 0.60157,0.38672c0.14062,0.08593 0.28125,0.17578 0.42187,0.26172c0.20313,0.1289 0.41016,0.25781 0.61719,0.38281c0.13672,0.08594 0.27344,0.16797 0.41015,0.25c0.21094,0.1289 0.42579,0.25781 0.63672,0.38281c0.13282,0.08203 0.26953,0.16016 0.40235,0.24219c0.21875,0.125 0.4375,0.2539 0.65625,0.38281c0.1289,0.07422 0.25781,0.14844 0.38672,0.22266c0.22656,0.1289 0.45312,0.25781 0.67968,0.38672c0.125,0.07031 0.2461,0.14062 0.3711,0.21093c0.23828,0.12891 0.47656,0.26172 0.71484,0.39063c0.11328,0.0625 0.23047,0.125 0.34375,0.1875c0.25391,0.14062 0.51172,0.27344 0.76563,0.41015c0.10156,0.05469 0.19921,0.10547 0.29687,0.16016c0.28125,0.14844 0.56641,0.29297 0.84766,0.4375c0.07422,0.03906 0.14843,0.07813 0.22656,0.11719c0.33203,0.16797 0.66797,0.33594 1.00781,0.5039c0.02344,0.01172 0.04297,0.02344 0.06641,0.03516c1.46875,0.72656 2.95703,1.41406 4.46094,2.0625c0.05468,0.02344 0.10546,0.04688 0.16015,0.07031c0.31641,0.13672 0.63672,0.26953 0.95313,0.40235c0.08203,0.03515 0.16797,0.07031 0.25,0.10156c0.28906,0.12109 0.57812,0.24219 0.87109,0.35937c0.10156,0.03907 0.19922,0.07813 0.30078,0.11719c0.27344,0.10938 0.55078,0.21875 0.82422,0.32813c0.11328,0.04297 0.22656,0.08593 0.33984,0.1289c0.26563,0.10157 0.52735,0.20313 0.79297,0.30078c0.125,0.04688 0.2461,0.09375 0.3711,0.13672c0.2539,0.09375 0.50781,0.1875 0.76172,0.28125c0.13671,0.04688 0.26953,0.09375 0.40234,0.14063c0.24609,0.08984 0.49219,0.17578 0.73828,0.26172c0.14453,0.04687 0.28516,0.09765 0.42969,0.14453c0.23828,0.08203 0.47656,0.16406 0.71484,0.24219c0.15235,0.05078 0.30469,0.09765 0.45313,0.14843c0.23047,0.07422 0.46093,0.14844 0.6914,0.22266c0.16407,0.05078 0.32422,0.10547 0.48828,0.15625c0.08985,0.02734 0.17969,0.05469 0.26954,0.08594c0.1289,0.03906 0.25781,0.07422 0.38671,0.11718c0.10547,0.03125 0.21094,0.0625 0.31641,0.09766c0.07031,0.01953 0.13672,0.03906 0.20703,0.05859c0.21094,0.0625 0.42188,0.125 0.63281,0.1875c0.16407,0.04688 0.32813,0.09375 0.49219,0.14063c0.23047,0.06641 0.46485,0.13281 0.69531,0.19922c0.14454,0.03906 0.28907,0.07812 0.4336,0.11719c0.2539,0.07031 0.50781,0.13671 0.75781,0.20312c0.125,0.03516 0.25391,0.07031 0.37891,0.10156c0.27343,0.07032 0.54297,0.14063 0.8125,0.20703c0.10937,0.02735 0.22265,0.05469 0.33203,0.08204c0.28906,0.07421 0.57812,0.14453 0.86719,0.21093c0.08984,0.02344 0.18359,0.04688 0.27734,0.06641c0.30469,0.07422 0.61328,0.14453 0.92187,0.21094c0.07422,0.01953 0.15235,0.03515 0.22657,0.05468c0.32422,0.07032 0.65234,0.14063 0.97656,0.21094c0.05859,0.01172 0.11719,0.02344 0.17969,0.03516c0.33984,0.07422 0.68359,0.14062 1.02343,0.21094c0.04688,0.00781 0.08985,0.01562 0.13282,0.02734c0.35937,0.07031 0.71484,0.13672 1.07422,0.20312c0.03125,0.00782 0.05859,0.01172 0.08984,0.01563c0.37109,0.07031 0.74609,0.13672 1.12109,0.19922c0.01172,0.0039 0.02735,0.00781 0.04297,0.01172c0.39063,0.0664 0.77735,0.1289 1.16797,0.1914c0,0 0,0 0.00391,0c5.89843,0.94141 11.87109,1.33203 17.88672,1.17578c0.01562,0 0.03125,0 0.04687,0c0.38281,-0.01171 0.76172,-0.02343 1.14453,-0.03906c0.10547,-0.0039 0.21094,-0.00781 0.32031,-0.01172c0.28907,-0.01172 0.57813,-0.02343 0.86719,-0.03906c0.15235,-0.00781 0.3086,-0.01562 0.46094,-0.02734c0.24219,-0.01172 0.48828,-0.02344 0.73047,-0.03907c0.17578,-0.01171 0.35156,-0.02343 0.52734,-0.03515c0.22266,-0.01563 0.44531,-0.03125 0.66797,-0.04688c0.1875,-0.01562 0.375,-0.03125 0.5625,-0.04297c0.19141,-0.01562 0.37891,-0.03125 0.56641,-0.04687l0.87109,10.07031c-0.62891,-0.1289 -1.27344,-0.30469 -1.9375,-0.48828zm0,0"/>
   <path id="svg_20" fill-rule="nonzero" fill="rgb(32.54902%,9.411765%,5.882353%)" d="m282.32031,180.0625c5.57032,1.72266 11.77344,-2.28906 13.83594,-8.94531c2.0625,-6.65625 -0.79297,-13.47266 -6.35937,-15.19922c-5.56641,-1.72266 -11.77344,2.28906 -13.83204,8.94531c-2.0625,6.65625 0.78907,13.47266 6.35547,15.19922zm6.42969,-20.76172c4.00781,1.24219 6.05859,6.14844 4.57422,10.9375c-1.48047,4.79297 -5.94922,7.67969 -9.95313,6.4375c-4.00781,-1.24219 -6.05859,-6.14844 -4.57812,-10.9375c1.48437,-4.78906 5.94922,-7.67578 9.95703,-6.4375zm0,0"/>
   <path id="svg_21" fill-rule="nonzero" fill="rgb(32.54902%,9.411765%,5.882353%)" d="m292.875,128.58594c1.63672,-5.28125 -0.62891,-10.69141 -5.04687,-12.0625c-4.41407,-1.36719 -9.33985,1.8164 -10.97657,7.09765c-1.63672,5.28125 0.62891,10.69141 5.04688,12.0625c4.41797,1.36719 9.33984,-1.8164 10.97656,-7.09765zm-9.92969,3.71094c-2.85547,-0.88282 -4.32031,-4.38282 -3.26172,-7.79688c1.0586,-3.41797 4.24219,-5.47656 7.09766,-4.58984c2.85938,0.88281 4.32031,4.38281 3.26563,7.79687c-1.0586,3.41797 -4.2461,5.47656 -7.10157,4.58985zm0,0"/>
   <path id="svg_22" fill-rule="nonzero" fill="rgb(32.54902%,9.411765%,5.882353%)" d="m277.85156,144.60547c-0.48047,-1.14063 -1.33593,-1.95703 -2.41015,-2.28906c-1.05078,-0.32422 -2.1875,-0.15235 -3.21094,0.48437l-2.26953,-5.42187l-8.97656,5.80078l2.26953,5.42578c-2.10157,1.41016 -3.01563,4.42187 -2.03907,6.75781c0.72266,1.73047 2.01563,2.96094 3.64063,3.46094c1.625,0.50391 3.38672,0.22266 4.96094,-0.79688l4.84765,-3.13281c3.25,-2.10156 4.67969,-6.71875 3.1875,-10.28906zm-4.44531,7.27344l-4.84766,3.13672c-0.84375,0.54296 -1.78515,0.69531 -2.65625,0.42578c-0.86718,-0.26953 -1.55859,-0.92578 -1.94531,-1.85157c-0.29297,-0.69921 -0.01172,-1.60156 0.625,-2.01562l2.67578,-1.73047l-2.26953,-5.42187l3.48828,-2.25782l2.27344,5.42578l2.67578,-1.73046c0.30469,-0.19922 0.65235,-0.25782 0.96875,-0.15625c0.32031,0.09765 0.57422,0.33984 0.71485,0.67578c0.79687,1.91015 0.03515,4.3789 -1.70313,5.5zm0,0"/>
   <path id="svg_23" fill-rule="nonzero" fill="rgb(96.470588%,63.529412%,18.823529%)" d="m86.98047,134.55469l39.01172,-33.29688l-99.40625,-6.63672c-2.14453,27.09375 7.03906,52.36329 23.625,71.32032l33.27734,-28.41016"/>
   <path id="svg_24" fill-rule="nonzero" fill="rgb(77.647059%,39.607843%,0%)" d="m12.66406,93.64844c0.01563,2.78906 1.63672,5.47265 1.63672,8.2539c0,2.97266 -1.85156,6.17579 -1.61328,9.125c0.23438,2.94141 2.54688,5.51172 3.01953,8.42188c0.46875,2.89453 -0.88672,6.24219 -0.1875,9.09766c0.69922,2.83984 3.42188,5.07812 4.34766,7.87109l-0.01172,-0.03906c0.92578,2.79297 0.07422,6.21875 1.21094,8.91015c1.14453,2.71094 4.22656,4.58594 5.58203,7.1875c1.35547,2.61719 1.03906,6.0586 2.60547,8.5625c1.5664,2.50391 4.96484,3.96875 6.73828,6.35547c1.66406,2.23047 1.96484,5.35156 3.61719,7.59375l10.60156,-9.04687l-0.00391,-0.00391c-16.58203,-18.95312 -25.76562,-44.22266 -23.62109,-71.31641l-13.92188,-0.97265zm0,0"/>
   <path id="svg_25" fill-rule="nonzero" fill="rgb(83.529412%,20%,28.627451%)" d="m51.98047,130.46094c5.69531,-1.88672 11.59375,0.44531 13.17187,5.21094c1.57813,4.76562 -1.75781,10.15625 -7.45703,12.04296c-5.69531,1.89063 -11.58984,-0.44531 -13.16797,-5.21093c-1.57812,-4.76172 1.75782,-10.15625 7.45313,-12.04297zm0,0"/>
   <path id="svg_26" fill-rule="nonzero" fill="rgb(83.529412%,20%,28.627451%)" d="m86.05469,107.21484c4.32812,-1.43359 8.80859,0.33985 10.00781,3.96094c1.19922,3.6211 -1.33594,7.71875 -5.66406,9.15235c-4.32813,1.43359 -8.8086,-0.33985 -10.00781,-3.96094c-1.19922,-3.6211 1.33593,-7.71875 5.66406,-9.15235zm0,0"/>
   <path id="svg_27" fill-rule="nonzero" fill="rgb(100%,88.627451%,52.156863%)" d="m54.36328,118.69141l5.36719,2.125c2.76953,1.09375 6.28125,-0.07032 7.84375,-2.60157c0.875,-1.41015 0.33203,-3.05078 -1.21094,-3.66015l-1.44531,-0.57422l3.09375,-5l-6.90234,-2.73047l-3.09375,5l-1.44532,-0.57031c-1.54297,-0.61328 -3.5039,0.03906 -4.3789,1.44922c-1.56641,2.53125 -0.59375,5.46875 2.17187,6.5625zm0,0"/>
   <path id="svg_28" fill-rule="nonzero" fill="rgb(32.54902%,9.411765%,5.882353%)" d="m33.05859,117.89063c0.8125,4.83203 1.89454,9.35546 3.12891,13.07812l3.36328,-1.11328c-1.19531,-3.60547 -2.24609,-8 -3.03515,-12.71094l-3.45704,0.7461zm0,0"/>
   <path id="svg_29" fill-rule="nonzero" fill="rgb(32.54902%,9.411765%,5.882353%)" d="m10.91406,91.99609l0.00782,1.82032c0.00781,1.57031 0.44531,3.04297 0.86718,4.46875c0.39453,1.32031 0.76563,2.5664 0.76563,3.77734c0,1.21484 -0.3711,2.53125 -0.76563,3.92578c-0.48437,1.72266 -0.98828,3.50391 -0.84375,5.30078c0.05469,0.67188 0.19922,1.35938 0.44532,2.09766c0.32421,0.98047 0.77734,1.91406 1.21484,2.81641c0.42187,0.86718 0.82422,1.6875 1.09766,2.51562c0.1289,0.39063 0.21875,0.75 0.27343,1.09375c0.19141,1.17969 0.02735,2.51172 -0.14843,3.91797c-0.21875,1.73828 -0.44532,3.53906 -0.01563,5.27734c0.04688,0.19532 0.10156,0.39063 0.16797,0.58203c0.48828,1.47657 1.39062,2.76172 2.26172,4.00391c0.80078,1.14453 1.55859,2.22656 1.9375,3.36328c0.375,1.14063 0.41015,2.45703 0.44922,3.85547c0.04297,1.51563 0.08984,3.08203 0.57812,4.5625c0.06641,0.19141 0.13672,0.38281 0.21485,0.56641c0.69531,1.64843 1.94921,2.96093 3.16406,4.22656c0.98047,1.02344 1.90625,1.98828 2.45703,3.05078c0.16016,0.3125 0.30469,0.65234 0.43359,1.04297c0.27344,0.82812 0.44141,1.72266 0.6211,2.67187c0.1875,0.98438 0.3789,2.00391 0.70703,2.98438c0.24219,0.73828 0.53515,1.37891 0.89453,1.94922c0.95703,1.52734 2.42578,2.65625 3.84375,3.75c1.14844,0.88281 2.23047,1.71875 2.95703,2.6914c0.72266,0.96875 1.16797,2.19141 1.64063,3.48829c0.51171,1.39453 1.03906,2.83593 1.96875,4.10156l1.07812,1.46094l12.17969,-10.39844l1.52344,-1.30469l31.7539,-27.10156l-2.30859,-2.04297l-31.80469,27.14453c-0.03125,-0.03516 -0.05859,-0.07422 -0.08984,-0.10937c-0.44532,-0.52735 -0.88282,-1.0586 -1.31641,-1.59375c-0.02734,-0.03516 -0.05469,-0.06641 -0.07812,-0.10157c-0.91797,-1.13672 -1.80469,-2.28906 -2.66407,-3.46093c-0.0039,-0.01172 -0.01172,-0.01954 -0.01953,-0.03125c-0.42578,-0.57813 -0.83984,-1.16407 -1.25,-1.75c-0.02344,-0.03125 -0.04297,-0.0625 -0.0664,-0.08985c-0.40235,-0.57812 -0.79688,-1.16015 -1.1836,-1.74219c-0.02734,-0.04296 -0.05078,-0.08203 -0.07812,-0.12109c-0.38672,-0.58203 -0.76563,-1.16797 -1.13672,-1.75781c-0.02735,-0.03906 -0.05078,-0.08203 -0.07422,-0.1211c-0.375,-0.59375 -0.74219,-1.1914 -1.10156,-1.79296c-0.01953,-0.03125 -0.03907,-0.06641 -0.0586,-0.10157c-0.36718,-0.60937 -0.72265,-1.22265 -1.07422,-1.83984c-0.01171,-0.02344 -0.02343,-0.04297 -0.03515,-0.0625c-1.80469,-3.19922 -3.42578,-6.49609 -4.85156,-9.89063c-0.01172,-0.03125 -0.02344,-0.05859 -0.03516,-0.08593c-0.27344,-0.64453 -0.53516,-1.29297 -0.78906,-1.94141c-0.02344,-0.05469 -0.04688,-0.11328 -0.06641,-0.16797c-0.24609,-0.63281 -0.48828,-1.26562 -0.72266,-1.90234c-0.02734,-0.07813 -0.05468,-0.15235 -0.08203,-0.23047c-0.22656,-0.62109 -0.44922,-1.25 -0.66406,-1.87891c-0.05078,-0.14843 -0.10156,-0.29687 -0.15234,-0.44531c-0.0625,-0.19141 -0.125,-0.38281 -0.1875,-0.57422c-0.0625,-0.17969 -0.1211,-0.36328 -0.17969,-0.54297c-0.05859,-0.19531 -0.12109,-0.38672 -0.18359,-0.57812c-0.05469,-0.17969 -0.11329,-0.35938 -0.16797,-0.53906c-0.0586,-0.19532 -0.1211,-0.39063 -0.17969,-0.58594c-0.05078,-0.17969 -0.10547,-0.35547 -0.15625,-0.53516c-0.05859,-0.19531 -0.11719,-0.39453 -0.17578,-0.58984c-0.05078,-0.17969 -0.10156,-0.35938 -0.15235,-0.53906c-0.05468,-0.19532 -0.10937,-0.39454 -0.16406,-0.58985c-0.05078,-0.17969 -0.09765,-0.36328 -0.14844,-0.54687c-0.05078,-0.19141 -0.10156,-0.38672 -0.15234,-0.58203c-0.05078,-0.1875 -0.09766,-0.375 -0.14453,-0.5625c-0.04688,-0.1875 -0.09766,-0.37891 -0.14453,-0.56641c-0.04688,-0.19531 -0.09375,-0.39063 -0.14063,-0.58594c-0.04687,-0.17969 -0.08984,-0.36328 -0.13281,-0.54687c-0.05078,-0.20313 -0.09375,-0.40625 -0.14062,-0.61328c-0.03907,-0.17188 -0.08204,-0.34766 -0.1211,-0.52344c-0.04687,-0.21485 -0.09375,-0.42969 -0.14062,-0.64453c-0.03516,-0.16407 -0.07032,-0.32813 -0.10547,-0.4961c-0.04688,-0.23047 -0.09375,-0.46093 -0.14063,-0.69531c-0.03125,-0.14844 -0.0625,-0.29687 -0.08984,-0.44141c-0.05078,-0.25781 -0.09766,-0.51562 -0.14844,-0.77343c-0.02344,-0.125 -0.04687,-0.25 -0.07031,-0.3711c-0.05469,-0.29297 -0.10547,-0.58593 -0.15625,-0.8789c-0.01563,-0.08985 -0.03125,-0.17969 -0.04688,-0.26953c-0.0625,-0.35938 -0.12109,-0.72266 -0.17968,-1.08594c-0.00391,-0.01953 -0.00782,-0.04297 -0.00782,-0.0625c-0.24609,-1.5586 -0.45312,-3.1211 -0.62109,-4.6875c-0.00391,-0.01563 -0.00391,-0.02735 -0.00781,-0.04297c-0.03906,-0.375 -0.07813,-0.75 -0.11328,-1.12109c-0.00391,-0.05469 -0.00782,-0.10938 -0.01172,-0.16407c-0.03125,-0.33593 -0.0625,-0.66797 -0.08985,-1.0039c-0.00781,-0.08203 -0.01171,-0.16407 -0.01953,-0.2461c-0.02343,-0.30468 -0.04687,-0.61328 -0.07031,-0.92187c-0.00781,-0.09766 -0.01172,-0.19922 -0.01953,-0.30078c-0.01953,-0.28907 -0.03906,-0.57813 -0.05469,-0.8711c-0.00781,-0.11328 -0.01172,-0.22265 -0.01953,-0.33593c-0.01172,-0.27735 -0.02734,-0.55469 -0.03906,-0.83204c-0.00781,-0.125 -0.01172,-0.25 -0.01563,-0.375c-0.01172,-0.26562 -0.02343,-0.53125 -0.03125,-0.79687c-0.0039,-0.13672 -0.00781,-0.27344 -0.01172,-0.41016c-0.00781,-0.2539 -0.01562,-0.50781 -0.01953,-0.76172c-0.0039,-0.14843 -0.0039,-0.29296 -0.00781,-0.4375c-0.00391,-0.24609 -0.00781,-0.49218 -0.00781,-0.74218c-0.00391,-0.14844 -0.00391,-0.30078 -0.00391,-0.45313c0,-0.23828 0,-0.48047 0,-0.72265c0,-0.15625 0.00391,-0.31641 0.00391,-0.47657c0.0039,-0.23047 0.0039,-0.46484 0.00781,-0.69531c0.00391,-0.16797 0.00781,-0.33203 0.01172,-0.5c0.00391,-0.22656 0.00781,-0.45312 0.01562,-0.67969c0.00391,-0.17187 0.01172,-0.34375 0.01563,-0.51562c0.00781,-0.21875 0.01562,-0.44141 0.02344,-0.66406c0.00781,-0.17579 0.01562,-0.35157 0.02343,-0.52735c0.01172,-0.21875 0.01954,-0.4375 0.03125,-0.65234c0.01172,-0.17969 0.01954,-0.36328 0.03125,-0.54297c0.00782,-0.125 0.01563,-0.25391 0.02344,-0.37891l3.41406,0.22657c-0.27343,5.1875 0.01172,11.17968 0.83985,17.4375l3.46875,-0.66016c-0.78516,-5.9375 -1.07422,-11.61328 -0.84375,-16.54297l87.0625,5.8125l-36.32422,31.00391l2.30859,2.04297l41.69922,-35.59375l-102.93359,-6.8711l-15.98438,-1.11719zm28.56641,78.61329c-0.51563,-1.40625 -1.04688,-2.85938 -1.99219,-4.12891c-0.9414,-1.26953 -2.23047,-2.26172 -3.48047,-3.22266c-1.28125,-0.98437 -2.49609,-1.91797 -3.19922,-3.04687c-0.25,-0.39844 -0.46093,-0.85938 -0.64062,-1.40625c-0.27344,-0.82422 -0.44531,-1.71875 -0.625,-2.66797c-0.18359,-0.98438 -0.37891,-2.00781 -0.70313,-2.98828c-0.17187,-0.51953 -0.36328,-0.98047 -0.58593,-1.41016c-0.72266,-1.38672 -1.82422,-2.53515 -2.89063,-3.64844c-1.09765,-1.14453 -2.13281,-2.22656 -2.64844,-3.44921c-0.05078,-0.1211 -0.10156,-0.25 -0.14453,-0.38282c-0.375,-1.1289 -0.41015,-2.44531 -0.44922,-3.84375c-0.04296,-1.51172 -0.08984,-3.07422 -0.57031,-4.55078l-0.01562,-0.03906c-0.4961,-1.47656 -1.39063,-2.75781 -2.25782,-3.99609c-0.80468,-1.14063 -1.55859,-2.22266 -1.93359,-3.35157c-0.04297,-0.13281 -0.08203,-0.26562 -0.11328,-0.39062c-0.31641,-1.28906 -0.12891,-2.77735 0.06641,-4.35156c0.1914,-1.52735 0.38671,-3.10938 0.13671,-4.65235c-0.07812,-0.47656 -0.19921,-0.96094 -0.36718,-1.48047c-0.32813,-0.98047 -0.78125,-1.91406 -1.22266,-2.82031c-0.41797,-0.86328 -0.81641,-1.68359 -1.08984,-2.50781c-0.1836,-0.54688 -0.28907,-1.04297 -0.32813,-1.51172c-0.10547,-1.32813 0.3086,-2.80078 0.75,-4.35938c0.42578,-1.51171 0.86719,-3.07812 0.86719,-4.66015c0,-1.58203 -0.44141,-3.06641 -0.86719,-4.5c-0.19531,-0.66016 -0.38672,-1.29688 -0.52734,-1.92188l10.09765,0.70313c-0.02343,0.32422 -0.03906,0.64844 -0.05859,0.97656c-0.00391,0.06641 -0.00781,0.13281 -0.01172,0.19922c-0.02344,0.41016 -0.04297,0.82031 -0.05859,1.23047c-0.00391,0.09765 -0.00781,0.19531 -0.01172,0.28906c-0.01172,0.3125 -0.02344,0.62109 -0.03125,0.93359c-0.00391,0.14063 -0.00781,0.28125 -0.01172,0.42579c-0.00781,0.26562 -0.01172,0.53125 -0.01953,0.79296c0,0.15625 -0.00391,0.3125 -0.00391,0.46875c-0.0039,0.25 -0.00781,0.50391 -0.00781,0.75391c0,0.16406 0,0.32813 0,0.48828c0,0.2461 0,0.48828 0,0.73047c0.00391,0.16797 0.00391,0.33594 0.00781,0.50391c0.00391,0.23828 0.00782,0.47656 0.01172,0.71484c0.00391,0.16797 0.00781,0.33594 0.01172,0.50781c0.00391,0.23438 0.01172,0.47266 0.01953,0.71094c0.00391,0.16797 0.01172,0.33984 0.01563,0.50781c0.01172,0.23438 0.01953,0.47266 0.03125,0.71094c0.00781,0.16797 0.01562,0.33594 0.02343,0.50391c0.01172,0.23828 0.02344,0.47265 0.03907,0.71093c0.00781,0.16797 0.01953,0.33204 0.02734,0.4961c0.01563,0.24219 0.03125,0.48437 0.04688,0.72656c0.01171,0.16016 0.02343,0.32031 0.03515,0.48047c0.01953,0.24609 0.03906,0.49219 0.0586,0.73828c0.01171,0.15625 0.02734,0.3125 0.03906,0.46875c0.02344,0.25 0.04687,0.50391 0.07031,0.75391c0.01172,0.14843 0.02734,0.30078 0.04297,0.44922c0.02344,0.25781 0.05078,0.51562 0.08203,0.77343c0.01172,0.14453 0.02734,0.28516 0.04297,0.42578c0.03125,0.26954 0.0625,0.53907 0.09766,0.8086c0.01562,0.13281 0.02734,0.26172 0.04687,0.39062c0.03516,0.28907 0.07422,0.57422 0.10938,0.85938c0.01562,0.11328 0.03125,0.22656 0.04687,0.33594c0.04297,0.3164 0.08594,0.6289 0.13281,0.94531c0.01172,0.08203 0.02344,0.16797 0.03516,0.25c0.05859,0.37109 0.11719,0.74219 0.17578,1.11328c0.00391,0.02734 0.00781,0.05078 0.01172,0.07812c0.26562,1.61329 0.57031,3.22657 0.91406,4.82813c0.01172,0.05469 0.02344,0.11328 0.03906,0.16797c0.07422,0.33984 0.14844,0.67578 0.22266,1.01172c0.01953,0.08984 0.04297,0.17578 0.0625,0.26172c0.07031,0.30468 0.14063,0.61328 0.21484,0.91796c0.02735,0.10547 0.05469,0.21094 0.07813,0.31641c0.07031,0.28516 0.14453,0.57031 0.21484,0.85938c0.03125,0.11718 0.0625,0.23437 0.09375,0.35156c0.07032,0.27344 0.14063,0.54687 0.21485,0.82031c0.03515,0.125 0.0664,0.25391 0.10156,0.37891c0.07422,0.26172 0.14453,0.52343 0.21875,0.78515c0.03906,0.13672 0.07812,0.27344 0.11719,0.41016c0.07031,0.25 0.14453,0.5 0.21875,0.75391c0.04297,0.14062 0.08593,0.28515 0.1289,0.42968c0.07032,0.24219 0.14453,0.48438 0.21875,0.72266c0.04688,0.15234 0.09375,0.30469 0.14453,0.45703c0.07032,0.23047 0.14454,0.46094 0.21875,0.69141c0.05079,0.16406 0.10547,0.32422 0.15625,0.48828c0.03125,0.08984 0.0586,0.17969 0.08985,0.26953c0.04297,0.12891 0.08594,0.25391 0.1289,0.38281c0.03516,0.10547 0.07032,0.21094 0.10547,0.3125c0.02344,0.07031 0.04688,0.13672 0.07032,0.20313c0.07031,0.20703 0.14062,0.41406 0.21484,0.62109c0.05469,0.16406 0.11328,0.32422 0.16797,0.48828c0.08203,0.22656 0.16406,0.45313 0.24609,0.67969c0.05078,0.14062 0.10156,0.28125 0.15625,0.42187c0.08985,0.2461 0.17969,0.49219 0.27344,0.73438c0.04687,0.125 0.09375,0.24609 0.14062,0.36719c0.09766,0.26172 0.19922,0.52343 0.30079,0.78125c0.04296,0.10547 0.08203,0.21093 0.125,0.3164c0.10937,0.27735 0.22265,0.55469 0.33203,0.82813c0.03515,0.08984 0.07422,0.17578 0.10937,0.26562c0.1211,0.29297 0.24219,0.58203 0.36328,0.875c0.03125,0.07032 0.0586,0.14063 0.08985,0.21485c0.13281,0.30468 0.26172,0.60937 0.39453,0.91406c0.02344,0.05859 0.05078,0.11328 0.07422,0.16797c0.14062,0.32031 0.28125,0.64062 0.42578,0.95703c0.01953,0.04297 0.03515,0.08203 0.05469,0.125c0.15234,0.33203 0.30468,0.66016 0.45703,0.99219c0.01562,0.02734 0.02734,0.05468 0.03906,0.08203c0.16016,0.34375 0.32422,0.68359 0.48828,1.02734c0.00781,0.01563 0.01563,0.02735 0.01953,0.04297c0.17188,0.35547 0.34766,0.70703 0.52344,1.05859c0,0.00391 0,0.00391 0,0.00391c2.66406,5.34766 5.81641,10.4375 9.44141,15.24219c0.00781,0.01172 0.01953,0.02734 0.02734,0.03906c0.23047,0.30469 0.46094,0.60547 0.69531,0.90625c0.0625,0.08594 0.12891,0.16797 0.19531,0.25391c0.17969,0.22656 0.35547,0.45703 0.53516,0.68359c0.09766,0.12109 0.19531,0.23828 0.28906,0.35938c0.15235,0.1914 0.30469,0.38281 0.46094,0.57031c0.10938,0.13672 0.22266,0.27344 0.33594,0.41015c0.14062,0.17188 0.28125,0.34375 0.42578,0.51563c0.11719,0.14453 0.24219,0.28906 0.36328,0.43359c0.12109,0.14453 0.24219,0.28907 0.36328,0.4336l-7.6875,6.5625c-0.26172,-0.58594 -0.49219,-1.21485 -0.72656,-1.86328zm0,0"/>
   <path id="svg_30" fill-rule="nonzero" fill="rgb(32.54902%,9.411765%,5.882353%)" d="m42.84375,143.0625c1.83594,5.53125 8.70703,8.25 15.32031,6.05859c6.61328,-2.1914 10.50391,-8.47265 8.66797,-14.00781c-1.83203,-5.53125 -8.70312,-8.25 -15.3164,-6.05859c-6.61329,2.1914 -10.50391,8.47656 -8.67188,14.00781zm20.62891,-6.83203c1.3164,3.98047 -1.48047,8.50391 -6.24219,10.07812c-4.75781,1.57813 -9.70313,-0.3789 -11.02344,-4.35937c-1.3164,-3.98438 1.48047,-8.50391 6.24219,-10.08203c4.75781,-1.57813 9.70312,0.3789 11.02344,4.36328zm0,0"/>
   <path id="svg_31" fill-rule="nonzero" fill="rgb(32.54902%,9.411765%,5.882353%)" d="m90.86328,121.73438c5.2461,-1.74219 8.33594,-6.72657 6.87891,-11.11719c-1.45313,-4.39063 -6.90625,-6.54688 -12.15625,-4.8086c-5.2461,1.73829 -8.33203,6.72657 -6.87891,11.11329c1.45703,4.39062 6.90625,6.55078 12.15625,4.8125zm-8.79297,-5.92579c-0.9414,-2.83984 1.05469,-6.0625 4.44922,-7.1875c3.39453,-1.125 6.92188,0.26954 7.85938,3.10938c0.9414,2.83984 -1.05469,6.06641 -4.44922,7.1875c-3.39063,1.125 -6.91797,-0.26953 -7.85938,-3.10938zm0,0"/>
   <path id="svg_32" fill-rule="nonzero" fill="rgb(32.54902%,9.411765%,5.882353%)" d="m69.09375,118.81641c0.65234,-1.05469 0.81641,-2.22266 0.46484,-3.28907c-0.34765,-1.04296 -1.14843,-1.87109 -2.26171,-2.33203l3.09375,-5l-9.94141,-3.93359l-3.09375,5c-2.36719,-0.89063 -5.35156,0.11328 -6.68359,2.26562c-0.98829,1.59766 -1.23438,3.36329 -0.69922,4.98047c0.53515,1.61328 1.78906,2.88282 3.53125,3.57422l5.36718,2.1211c3.60157,1.42578 8.1875,-0.09375 10.22266,-3.38672zm-8.50391,0.60937l-5.36718,-2.12109c-0.92969,-0.3711 -1.60157,-1.05078 -1.88672,-1.91406c-0.28906,-0.86329 -0.15235,-1.8086 0.375,-2.66016c0.39844,-0.64453 1.29687,-0.94141 2,-0.66406l2.96484,1.17578l3.09375,-5l3.86328,1.52734l-3.09375,5l2.96485,1.17188c0.33984,0.13672 0.58593,0.38281 0.6914,0.69922c0.10547,0.3164 0.05469,0.66406 -0.13672,0.97656c-1.08984,1.75781 -3.54296,2.57031 -5.46875,1.80859zm0,0"/>
  </g>
 </g>
</svg>